<svg id="Capa_1" enable-background="new 0 0 512 512" height="512" viewBox="0 0 512 512" width="512" xmlns="http://www.w3.org/2000/svg"><g><g><g><g><g><path d="m336.467 153.509h-261.061v123.122h261.061l9.615-12.39v-100.957z" fill="#81a7c6"/><path d="m336.467 153.509h100.127v123.123h-100.127z" fill="#5c90b9"/><g fill="#4073c8"><path d="m75.406 430.122c-19.031 0-34.458-15.428-34.458-34.458v-361.206c0-19.03 15.427-34.458 34.458-34.458 19.031 0 34.458 15.428 34.458 34.458v361.206c.001 19.031-15.427 34.458-34.458 34.458z"/><path d="m436.594 430.122c-19.031 0-34.458-15.428-34.458-34.458v-361.206c-.001-19.03 15.427-34.458 34.458-34.458 19.031 0 34.458 15.428 34.458 34.458v361.206c0 19.031-15.427 34.458-34.458 34.458z"/></g></g></g><g><path d="m129.344 365.713c10.758 0 19.479-8.721 19.479-19.479v-262.327c0-10.758-8.721-19.479-19.479-19.479-10.758 0-19.479 8.721-19.479 19.479v262.326c0 10.758 8.721 19.48 19.479 19.48z" fill="#eab14d"/><path d="m168.302 365.713c10.758 0 19.479-8.721 19.479-19.479v-262.327c0-10.758-8.721-19.479-19.479-19.479-10.758 0-19.479 8.721-19.479 19.479v262.326c0 10.758 8.721 19.48 19.479 19.48z" fill="#e49542"/><path d="m207.261 365.713c10.758 0 19.479-8.721 19.479-19.479v-262.327c0-10.758-8.721-19.479-19.479-19.479-10.758 0-19.479 8.721-19.479 19.479v262.326c-.001 10.758 8.721 19.48 19.479 19.48z" fill="#eab14d"/><path d="m246.219 365.713c10.758 0 19.479-8.721 19.479-19.479v-262.327c0-10.758-8.721-19.479-19.479-19.479-10.758 0-19.479 8.721-19.479 19.479v262.326c0 10.758 8.721 19.48 19.479 19.48z" fill="#e49542"/><path d="m285.177 512c10.758 0 19.479-8.721 19.479-19.479v-408.614c0-10.758-8.721-19.479-19.479-19.479-10.758 0-19.479 8.721-19.479 19.479v408.614c-.001 10.758 8.72 19.479 19.479 19.479z" fill="#eab14d"/></g></g></g></g></svg>