<svg id="Capa_1" enable-background="new 0 0 512 512" height="512" viewBox="0 0 512 512" width="512" xmlns="http://www.w3.org/2000/svg"><g><g><g><g><g><g><g><path d="m270.441 486.384v-42.231h-88.124v42.231c0 14.148 11.469 25.617 25.617 25.617h36.891c14.147-.001 25.616-11.47 25.616-25.617z" fill="#407093"/><path d="m262.371 444.153v42.231c0 14.148-11.469 25.617-25.617 25.617h67.3c14.148 0 25.617-11.469 25.617-25.617v-42.231z" fill="#365e7d"/><path d="m369.842 173.078c0-79.896-59.022-150.117-133.096-170.337l-14.321.545c-132.789 25.348-184.7 187.782-94.07 286.68 31.604 34.487 51.571 77.73 57.476 123.658h81.108c5.955-46.017 26.097-89.284 57.711-123.929 28.072-30.762 45.192-71.689 45.192-116.617z" fill="#ffe07d"/><path d="m254.713.005c-11.034.08-21.828 1.205-32.288 3.281 79.442 15.693 139.347 85.747 139.347 169.793 0 44.928-17.12 85.854-45.192 116.616-31.614 34.645-51.756 77.912-57.711 123.929h67.3c5.955-46.017 26.097-89.284 57.711-123.929 101.021-110.705 21.721-290.781-129.167-289.69z" fill="#ffd064"/></g></g><g><path d="m292.981 392.861c0-9.409-7.625-17.038-17.033-17.043h-99.13c-9.413 0-17.043 7.63-17.043 17.043 0 9.413 7.63 17.043 17.043 17.043h99.12c9.413 0 17.043-7.63 17.043-17.043z" fill="#98b9d3"/><path d="m275.939 443.99c9.413 0 17.043-7.63 17.043-17.043s-7.63-17.043-17.043-17.043h-99.12c-9.413 0-17.043 7.63-17.043 17.043s7.63 17.043 17.043 17.043h158.349.01z" fill="#81a7c6"/><path d="m292.981 461.033c0-9.409-7.625-17.038-17.033-17.043h-99.13c-9.413 0-17.043 7.63-17.043 17.043 0 9.413 7.63 17.043 17.043 17.043h99.13c9.408-.005 17.033-7.633 17.033-17.043z" fill="#98b9d3"/></g></g></g><g><g><g><path d="m335.168 375.818h-67.299c9.413 0 17.043 7.63 17.043 17.043s-7.63 17.043-17.043 17.043h67.299c9.413 0 17.043-7.63 17.043-17.043s-7.63-17.043-17.043-17.043z" fill="#81a7c6"/><path d="m335.168 409.904h-67.299c9.413 0 17.043 7.63 17.043 17.043s-7.63 17.043-17.043 17.043h67.299c9.413 0 17.043-7.63 17.043-17.043 0-9.412-7.63-17.043-17.043-17.043z" fill="#5c90b9"/></g></g></g><g><g><path d="m348.719 237.362v-91.087c0-4.945-2.638-9.515-6.921-11.988l-78.884-45.544c-4.283-2.473-9.559-2.473-13.842 0l-78.884 45.544c-4.283 2.473-6.921 7.042-6.921 11.988v91.087c0 4.945 2.638 9.515 6.921 11.988l78.884 45.544c4.283 2.473 9.559 2.473 13.842 0l78.884-45.544c4.283-2.473 6.921-7.043 6.921-11.988z" fill="#f2f9ff"/><g fill="#e2f4ff"><path d="m255.994 161.395c-4.267 0-7.726 3.459-7.726 7.726v125.307l.805.465c4.283 2.473 9.559 2.473 13.842 0l.805-.465v-125.306c0-4.268-3.459-7.727-7.726-7.727z"/><path d="m263.949 187.225 82.916-47.872c-1.195-2.07-2.925-3.83-5.067-5.067l-78.884-45.543c-4.283-2.473-9.559-2.473-13.842 0l-78.884 45.543c-2.141 1.236-3.872 2.997-5.067 5.067l82.916 47.872c4.924 2.842 10.989 2.842 15.912 0z"/></g></g></g></g><g><g><path d="m335.168 443.99h-67.299c9.413 0 17.043 7.63 17.043 17.043s-7.63 17.043-17.043 17.043h67.299c9.413 0 17.043-7.63 17.043-17.043s-7.63-17.043-17.043-17.043z" fill="#81a7c6"/></g></g></g></g></svg>